<svg width="589" height="589" viewBox="0 0 589 589" fill="none" xmlns="http://www.w3.org/2000/svg">
<path d="M376.66 271.903C345.572 268.172 321.495 242.918 319.246 211.683L306.742 37.9889C305.577 21.8059 281.826 21.8057 280.661 37.9888L268.157 211.683C265.909 242.918 241.831 268.172 210.744 271.903L127.319 281.916C111.963 283.759 111.963 306.04 127.319 307.883L210.744 317.895C241.831 321.626 265.909 346.881 268.157 378.116L280.661 551.81C281.826 567.993 305.577 567.993 306.742 551.81L319.246 378.116C321.495 346.881 345.572 321.626 376.66 317.895L460.084 307.883C475.44 306.04 475.44 283.759 460.084 281.916L376.66 271.903Z" fill="#FF9544"/>
</svg>
