<svg width="589" height="589" viewBox="0 0 589 589" fill="none" xmlns="http://www.w3.org/2000/svg">
<path d="M376.662 271.903C345.574 268.172 321.497 242.918 319.248 211.683L306.745 37.9889C305.58 21.8059 281.829 21.8057 280.664 37.9888L268.16 211.683C265.911 242.918 241.834 268.172 210.746 271.903L127.321 281.916C111.966 283.759 111.966 306.04 127.321 307.882L210.746 317.895C241.834 321.626 265.911 346.881 268.16 378.116L280.664 551.81C281.829 567.993 305.58 567.993 306.744 551.81L319.248 378.116C321.497 346.881 345.574 321.626 376.662 317.895L460.087 307.882C475.442 306.04 475.442 283.759 460.087 281.916L376.662 271.903Z" fill="white"/>
<path d="M376.662 271.903C345.574 268.172 321.497 242.918 319.248 211.683L306.745 37.9889C305.58 21.8059 281.829 21.8057 280.664 37.9888L268.16 211.683C265.911 242.918 241.834 268.172 210.746 271.903L127.321 281.916C111.966 283.759 111.966 306.04 127.321 307.882L210.746 317.895C241.834 321.626 265.911 346.881 268.16 378.116L280.664 551.81C281.829 567.993 305.58 567.993 306.744 551.81L319.248 378.116C321.497 346.881 345.574 321.626 376.662 317.895L460.087 307.882C475.442 306.04 475.442 283.759 460.087 281.916L376.662 271.903Z" fill="url(#paint0_radial_3610_1778)"/>
<defs>
<radialGradient id="paint0_radial_3610_1778" cx="0" cy="0" r="1" gradientUnits="userSpaceOnUse" gradientTransform="translate(293.168 294.5) rotate(90) scale(333.811 222.828)">
<stop stop-color="#FFD58F"/>
<stop offset="0.5" stop-color="#F2A0D8"/>
<stop offset="1" stop-color="#698DFF"/>
</radialGradient>
</defs>
</svg>
